<?xml version="1.0" standalone="no"?>
<!DOCTYPE svg PUBLIC "-//W3C//DTD SVG 20010904//EN"
 "http://www.w3.org/TR/2001/REC-SVG-20010904/DTD/svg10.dtd">
<svg version="1.0" xmlns="http://www.w3.org/2000/svg"
 width="700.000000pt" height="700.000000pt" viewBox="0 0 700.000000 700.000000"
 preserveAspectRatio="xMidYMid meet">
<metadata>
Created by potrace 1.11, written by Peter Selinger 2001-2013
</metadata>
<g transform="translate(0.000000,700.000000) scale(0.100000,-0.100000)"
fill="#000000" stroke="none">
<path d="M1635 6988 c-4 -11 -46 -220 -62 -308 -2 -13 -11 -56 -19 -95 -8 -38
-17 -86 -20 -105 -3 -19 -7 -42 -10 -50 -4 -12 -30 -139 -51 -250 -2 -13 -11
-56 -19 -95 -8 -38 -17 -86 -20 -105 -3 -19 -7 -43 -10 -52 -3 -10 -7 -28 -9
-40 -3 -13 -39 -194 -81 -403 -41 -209 -78 -391 -80 -405 -3 -14 -73 -365
-156 -780 -82 -415 -151 -762 -153 -770 -2 -8 -20 -98 -40 -200 -20 -102 -39
-196 -41 -210 -8 -41 -10 -54 -64 -320 -28 -140 -54 -266 -56 -280 -2 -14 -7
-36 -9 -50 -3 -14 -7 -34 -9 -45 -2 -11 -20 -99 -39 -195 -20 -96 -38 -186
-40 -200 -3 -14 -12 -59 -20 -100 -9 -41 -18 -88 -21 -104 -3 -16 -10 -52 -16
-80 -6 -28 -12 -60 -14 -71 -2 -11 -18 -92 -36 -180 -70 -348 -88 -450 -82
-456 7 -6 254 -56 322 -65 19 -3 49 -9 65 -14 17 -5 50 -12 75 -16 25 -4 47
-8 50 -9 3 0 21 -4 40 -8 19 -4 44 -9 55 -11 26 -6 934 -187 960 -192 11 -2
85 -17 165 -33 160 -31 152 -33 163 35 3 16 12 64 21 106 9 42 19 93 22 114 3
21 9 47 13 58 14 41 7 51 -44 63 -27 7 -68 15 -90 19 -22 3 -42 7 -45 9 -3 2
-21 6 -40 9 -19 3 -102 19 -185 35 -82 17 -161 32 -175 35 -14 2 -131 25 -260
51 -129 26 -244 49 -255 51 -11 2 -65 13 -120 24 -55 11 -111 22 -125 25 -31
6 -92 19 -102 21 -5 1 -15 2 -23 3 -8 0 -15 9 -15 20 0 10 27 155 61 322 33
167 63 315 65 329 3 14 7 32 9 40 2 8 7 31 10 50 5 29 31 165 70 355 3 17 8
41 11 55 4 21 23 117 38 195 2 11 45 225 95 475 50 250 92 466 95 480 3 14 18
90 34 170 17 80 33 159 35 175 3 17 20 100 37 185 17 85 34 166 36 180 2 14 9
45 14 70 5 25 12 61 15 80 3 19 10 51 15 70 5 19 11 46 14 60 5 30 64 337 70
365 4 21 175 874 182 910 9 45 14 73 24 120 14 68 19 95 26 130 3 17 12 64 20
105 22 106 24 116 40 204 2 10 6 21 9 24 3 3 138 -20 300 -52 241 -48 295 -62
295 -75 0 -9 -12 -72 -26 -141 -14 -69 -28 -136 -30 -150 -3 -14 -50 -252
-106 -530 -55 -278 -102 -514 -104 -525 -5 -30 -64 -317 -68 -336 -3 -14 30
-23 208 -58 116 -23 218 -44 228 -47 16 -5 19 3 32 76 2 14 13 70 25 125 11
55 22 111 25 125 4 21 130 650 141 704 10 43 37 135 57 186 57 147 116 230
196 278 43 25 55 27 152 27 114 -1 205 -21 275 -61 90 -51 128 -141 126 -300
0 -102 3 -80 -71 -459 -29 -143 -54 -271 -56 -285 -3 -14 -34 -171 -70 -350
-36 -179 -68 -336 -70 -350 -3 -14 -61 -308 -130 -655 -70 -346 -128 -641
-131 -655 -2 -14 -15 -79 -28 -145 -14 -66 -27 -131 -29 -145 -3 -14 -14 -70
-25 -125 -11 -55 -22 -111 -24 -125 -3 -14 -13 -61 -22 -105 -9 -44 -19 -91
-21 -105 -3 -14 -30 -151 -61 -305 -30 -154 -57 -289 -59 -300 -2 -11 -17 -87
-34 -170 -17 -82 -33 -166 -36 -185 -3 -19 -12 -62 -19 -95 -8 -33 -16 -71
-18 -85 -3 -14 -19 -95 -36 -180 -17 -85 -32 -166 -35 -180 -2 -14 -11 -55
-19 -93 -8 -37 -11 -69 -7 -72 3 -2 22 -7 41 -10 19 -3 41 -8 49 -10 8 -2 29
-7 45 -10 17 -2 41 -7 55 -10 14 -3 61 -12 105 -21 44 -9 96 -19 116 -21 l37
-5 10 49 c6 26 16 78 23 116 7 37 15 67 18 67 3 0 19 -21 36 -47 44 -70 143
-164 227 -217 113 -70 245 -110 403 -123 66 -5 602 -107 612 -116 2 -3 -27 -5
-64 -7 -37 -1 -88 -3 -113 -5 -25 -1 -97 -6 -160 -9 -63 -4 -142 -9 -175 -11
-33 -2 -107 -6 -165 -9 -58 -4 -134 -8 -170 -11 -36 -2 -117 -7 -180 -10 -63
-3 -144 -7 -180 -10 -36 -2 -108 -7 -160 -10 -176 -10 -245 -14 -330 -20 -47
-3 -130 -7 -185 -10 -55 -3 -134 -7 -175 -10 -41 -2 -115 -7 -165 -10 -49 -3
-126 -8 -170 -10 -44 -3 -120 -7 -170 -10 -49 -3 -126 -7 -170 -10 -44 -3
-123 -7 -175 -10 -52 -3 -135 -7 -185 -11 -49 -3 -117 -7 -150 -9 -169 -9
-314 -17 -345 -20 -19 -2 -100 -7 -180 -10 -80 -4 -147 -9 -149 -11 -2 -2
1148 -4 2557 -4 1409 0 2562 3 2562 8 0 4 7 39 14 77 8 39 17 81 20 95 2 14
18 95 36 180 17 85 34 166 36 180 3 14 12 59 20 100 9 41 18 86 20 100 3 14 7
32 9 40 3 8 7 32 11 54 7 50 12 74 18 94 3 9 7 33 10 52 3 19 16 87 30 150 13
63 27 131 30 150 3 19 14 78 25 130 11 52 23 111 26 130 3 19 22 112 41 205
19 94 37 183 39 198 3 15 16 83 30 150 13 67 26 133 29 147 3 14 17 84 31 155
36 174 42 207 61 305 3 14 11 57 19 95 8 39 16 81 18 95 3 14 12 59 20 100 9
41 18 86 21 100 2 14 30 153 61 310 31 157 59 294 61 305 2 11 11 54 19 95 8
41 17 84 19 95 2 11 29 148 61 304 l56 284 -592 886 -592 886 -148 32 c-81 17
-162 33 -181 36 -18 3 -125 24 -238 47 -113 23 -216 44 -230 46 -14 3 -92 18
-173 35 -81 16 -153 29 -159 29 -6 0 5 -19 24 -42 78 -97 141 -224 169 -338 7
-30 17 -60 23 -67 6 -6 40 -16 76 -22 36 -6 155 -28 265 -51 110 -22 211 -42
225 -45 25 -4 211 -43 240 -50 8 -2 18 -4 21 -4 4 -1 -2 -43 -13 -93 -10 -51
-21 -106 -24 -123 -3 -16 -9 -46 -14 -65 -5 -19 -11 -51 -14 -70 -3 -19 -8
-45 -10 -58 -18 -85 -79 -392 -83 -412 -2 -14 -15 -77 -28 -140 -15 -78 -20
-117 -12 -122 8 -5 72 -17 99 -19 4 0 22 -5 40 -10 18 -5 47 -12 63 -15 24 -4
193 -37 304 -59 9 -2 75 -15 146 -29 72 -14 186 -37 255 -51 69 -15 133 -27
143 -28 9 -1 17 -8 17 -17 0 -9 -20 -117 -45 -241 -25 -123 -48 -237 -51 -253
-3 -17 -19 -98 -35 -180 -17 -83 -33 -162 -35 -176 -3 -14 -19 -92 -35 -175
-17 -82 -33 -161 -35 -175 -3 -14 -22 -113 -44 -220 -21 -107 -41 -209 -44
-226 -3 -18 -24 -119 -45 -225 -57 -278 -233 -1161 -236 -1179 -2 -15 -14 -80
-21 -110 -9 -41 -46 -228 -50 -250 -2 -14 -16 -81 -30 -150 -14 -69 -28 -136
-30 -150 -10 -58 -47 -240 -60 -300 l-15 -66 -262 53 c-144 29 -280 55 -302
59 -22 3 -42 7 -46 9 -3 2 -21 7 -40 10 -136 22 -133 20 -93 63 86 92 179 256
228 403 44 135 60 234 61 384 0 194 -13 267 -75 420 -139 344 -486 577 -856
576 -94 0 -139 -7 -228 -36 -70 -23 -189 -85 -201 -105 -3 -6 -14 -14 -24 -20
-18 -9 -18 -6 -6 53 8 34 15 76 18 92 3 17 12 64 20 105 9 41 19 91 22 110 3
19 12 64 20 100 8 36 17 76 19 90 2 14 32 165 66 335 34 171 64 319 66 330 2
11 20 101 40 200 19 99 38 191 40 205 6 31 61 305 68 343 12 54 18 86 73 362
30 154 56 287 58 295 12 58 125 631 129 655 3 17 8 43 12 58 13 60 15 86 19
213 3 96 0 146 -11 190 -79 300 -365 492 -729 488 -132 -2 -237 -31 -334 -94
-34 -22 -63 -40 -65 -40 -2 0 10 64 27 143 35 171 37 189 17 193 -25 4 -72 13
-150 29 -41 8 -120 24 -175 35 -55 10 -145 28 -200 40 -55 11 -111 23 -125 25
-14 2 -106 21 -205 40 -99 20 -191 39 -205 41 -14 3 -79 16 -145 29 -66 13
-136 27 -155 30 -19 3 -43 8 -53 11 -9 3 -19 -1 -22 -8z m2363 -4953 c177 -42
309 -161 376 -338 14 -37 23 -67 21 -67 -2 0 1 -15 6 -32 15 -50 12 -214 -4
-293 -51 -241 -198 -426 -396 -498 -77 -28 -242 -29 -321 -3 -168 57 -281 155
-344 299 -70 159 -66 368 10 568 69 184 216 323 383 364 75 18 192 18 269 0z"/>
</g>
</svg>
