<?xml version="1.0" encoding="UTF-8" standalone="no"?>
<svg
   xmlns:dc="http://purl.org/dc/elements/1.1/"
   xmlns:cc="http://creativecommons.org/ns#"
   xmlns:rdf="http://www.w3.org/1999/02/22-rdf-syntax-ns#"
   xmlns:svg="http://www.w3.org/2000/svg"
   xmlns="http://www.w3.org/2000/svg"
   xmlns:sodipodi="http://sodipodi.sourceforge.net/DTD/sodipodi-0.dtd"
   xmlns:inkscape="http://www.inkscape.org/namespaces/inkscape"
   version="1.1"
   id="Layer_1"
   x="0px"
   y="0px"
   viewBox="0 0 2150 700"
   xml:space="preserve"
   sodipodi:docname="logo.svg"
   width="2150"
   height="700"
   inkscape:version="1.0.2 (e86c870879, 2021-01-15, custom)"><metadata
   id="metadata86"><rdf:RDF><cc:Work
       rdf:about=""><dc:format>image/svg+xml</dc:format><dc:type
         rdf:resource="http://purl.org/dc/dcmitype/StillImage" /><dc:title></dc:title></cc:Work></rdf:RDF></metadata><defs
   id="defs84">
	
	

		
		
	</defs><sodipodi:namedview
   pagecolor="#2980b9"
   bordercolor="#666666"
   borderopacity="1"
   objecttolerance="10"
   gridtolerance="10"
   guidetolerance="10"
   inkscape:pageopacity="1"
   inkscape:pageshadow="2"
   inkscape:window-width="1920"
   inkscape:window-height="1027"
   id="namedview82"
   showgrid="false"
   inkscape:zoom="0.445"
   inkscape:cx="682.02247"
   inkscape:cy="123.59551"
   inkscape:window-x="1912"
   inkscape:window-y="-8"
   inkscape:window-maximized="1"
   inkscape:current-layer="Layer_1"
   inkscape:document-rotation="0" />
<style
   type="text/css"
   id="style2">
	.st0{display:none;fill:#2B313D;}
	.st1{display:none;}
	.st2{display:none;fill:#2C3138;}
	.st3{fill:#E6E5E5;}
	.st4{fill:url(#SVGID_1_);}
	.st5{fill:url(#SVGID_2_);}
	.st6{fill:url(#SVGID_3_);}
	.st7{fill:url(#SVGID_4_);}
	.st8{fill:url(#SVGID_5_);}
	.st9{fill:url(#SVGID_6_);}
	.st10{fill:url(#SVGID_7_);}
	.st11{fill:url(#SVGID_8_);}
	.st12{fill:url(#SVGID_9_);}
	.st13{fill:#2E3B95;}
	.st14{fill:#F497B9;}
	.st15{fill:#00DCDC;}
	.st16{fill:#FFFFFF;}
	.st17{fill:#00036E;}
	.st18{fill:#E5097F;}
	.st19{fill:#00A0E3;}
</style>
<rect
   x="0"
   class="st0"
   width="2000"
   height="2000"
   id="rect4"
   y="0" />
<polygon
   class="st3"
   points="315.82,1206.95 582.42,1191.36 629.56,1206.95 "
   id="polygon6"
   transform="matrix(1.5025048,0,0,1.5025048,-427.5048,-1152.4973)"
   style="fill:#000000" /><g
   id="g17"
   transform="matrix(1.5025048,0,0,1.5025048,-427.5048,-1152.4973)"
   style="fill:#ffffff">
			<g
   id="g15"
   style="fill:#ffffff">
				<linearGradient
   id="SVGID_1_"
   gradientUnits="userSpaceOnUse"
   x1="632.52832"
   y1="900.02228"
   x2="360.6311"
   y2="1110.6814">
					<stop
   offset="0"
   style="stop-color:#3172F0"
   id="stop8" />
					<stop
   offset="1"
   style="stop-color:#000065"
   id="stop10" />
				</linearGradient>
				<path
   class="st4"
   d="M 683.33,936.97 664.25,908.4 631.03,858.65 611.95,830.08 543.06,816.36 c 3.73,4.01 7.06,8.83 9.72,14.63 l 0.13,0.3 c 1.75,4 2.97,8.12 3.67,12.54 l 50.63,10.08 -13.01,65.31 65.31,13.01 -49.03,246.16 -46.98,-9.36 c 9.16,-9.41 15.52,-21.97 18.26,-35.69 7.63,-38.32 -13.99,-67.05 -45.03,-73.24 -8.67,-1.73 -24.22,-2.5 -38.31,9.82 l 39.33,-197.53 c 3.62,-18.19 2.44,-26.85 -0.75,-34.18 -2.64,-5.76 -9.7,-18.51 -31.51,-22.86 -6.72,-1.34 -20.3,-3.17 -34.67,7.64 l 4.03,-20.22 -5.79,-1.15 -21.62,-4.31 -60.08,-11.97 -71.52,359.12 113.9,22.68 4.74,-23.82 -90.07,-17.94 62.03,-311.47 8.28,1.65 27.41,5.46 0.57,0.11 -20.59,103.27 27.41,5.46 11.25,-56.51 c 7.58,-38.05 20.5,-37.22 32.81,-34.77 10.35,2.06 21.36,5.13 15.4,35.07 l -58.33,292.96 -0.9,4.54 27.42,5.46 2.97,-14.93 c 9.24,16.38 23.68,21.3 32.07,22.97 3.89,0.77 7.66,1.15 11.31,1.19 l 106.04,21.12 z M 487.6,1115.46 c 5.12,-25.73 23.51,-34.86 40.86,-31.41 19.86,3.96 29.39,23.3 25.21,44.27 -4.07,20.43 -20.33,34.93 -40.2,30.98 -17.34,-3.45 -30.77,-19.22 -25.87,-43.84 z"
   id="path13"
   style="fill:#ffffff" />
			</g>
		</g><g
   id="g77"
   transform="matrix(1.5025048,0,0,1.5025048,-427.5048,-1152.4973)"
   style="fill:#ffffff">
		<linearGradient
   id="SVGID_2_"
   gradientUnits="userSpaceOnUse"
   x1="752.45923"
   y1="975.63507"
   x2="752.45923"
   y2="1170.8494">
			<stop
   offset="0"
   style="stop-color:#3172F0"
   id="stop21" />
			<stop
   offset="1"
   style="stop-color:#000065"
   id="stop23" />
		</linearGradient>
		<path
   class="st5"
   d="m 709.06,1047.01 h 18.71 v 12.48 c 3.38,-4.42 13,-15.07 30.93,-15.07 12.74,0 24.43,5.2 30.93,14.82 5.46,8.06 6.24,16.89 6.24,28.85 v 66.8 h -18.71 v -66.28 c 0,-6.5 -0.52,-14.03 -4.94,-19.75 -3.64,-4.68 -9.36,-7.8 -17.67,-7.8 -6.5,0 -13.52,1.82 -18.97,8.32 -7.28,8.58 -7.8,21.31 -7.8,29.11 v 56.4 h -18.71 v -107.88 z"
   id="path26"
   style="fill:#ffffff" />
		<linearGradient
   id="SVGID_3_"
   gradientUnits="userSpaceOnUse"
   x1="895.65997"
   y1="975.63507"
   x2="895.65997"
   y2="1170.8494">
			<stop
   offset="0"
   style="stop-color:#3172F0"
   id="stop28" />
			<stop
   offset="1"
   style="stop-color:#000065"
   id="stop30" />
		</linearGradient>
		<path
   class="st6"
   d="M 860.31,1154.87 H 841.6 V 965.4 h 18.71 v 96.68 c 12.74,-15.85 29.11,-17.67 36.91,-17.67 33.79,0 52.5,28.07 52.5,57.18 0,29.63 -18.97,56.4 -51.72,56.4 -17.41,0 -29.63,-7.8 -37.69,-18.19 z m 70.18,-53.28 c 0,-26.51 -17.93,-40.55 -35.35,-40.55 -17.41,0 -35.87,14.29 -35.87,40.29 0,22.09 14.03,40.03 36.13,40.03 21.83,-0.01 35.09,-18.2 35.09,-39.77 z"
   id="path33"
   style="fill:#ffffff" />
		<linearGradient
   id="SVGID_4_"
   gradientUnits="userSpaceOnUse"
   x1="1042.7589"
   y1="975.63507"
   x2="1042.7589"
   y2="1170.8494">
			<stop
   offset="0"
   style="stop-color:#3172F0"
   id="stop35" />
			<stop
   offset="1"
   style="stop-color:#000065"
   id="stop37" />
		</linearGradient>
		<path
   class="st7"
   d="M 1007.41,1214.65 H 988.7 v -167.64 h 18.71 v 15.07 c 12.74,-15.85 29.11,-17.67 36.91,-17.67 33.79,0 52.5,28.07 52.5,57.18 0,29.63 -18.97,56.4 -51.72,56.4 -17.41,0 -29.63,-7.8 -37.69,-18.19 z m 70.18,-113.06 c 0,-26.51 -17.93,-40.55 -35.35,-40.55 -17.41,0 -35.87,14.29 -35.87,40.29 0,22.09 14.03,40.03 36.13,40.03 21.83,-0.01 35.09,-18.2 35.09,-39.77 z"
   id="path40"
   style="fill:#ffffff" />
		<linearGradient
   id="SVGID_5_"
   gradientUnits="userSpaceOnUse"
   x1="1145.1537"
   y1="975.63507"
   x2="1145.1537"
   y2="1170.8494">
			<stop
   offset="0"
   style="stop-color:#3172F0"
   id="stop42" />
			<stop
   offset="1"
   style="stop-color:#000065"
   id="stop44" />
		</linearGradient>
		<path
   class="st8"
   d="m 1145.15,992.95 c 7.28,0 13.26,5.98 13.26,13.25 0,7.28 -5.98,13.26 -13.26,13.26 -7.28,0 -13.26,-5.98 -13.26,-13.26 0.01,-7.27 5.99,-13.25 13.26,-13.25 z m 9.36,54.06 v 107.86 h -18.71 v -107.86 z"
   id="path47"
   style="fill:#ffffff" />
		<linearGradient
   id="SVGID_6_"
   gradientUnits="userSpaceOnUse"
   x1="1239.4963"
   y1="975.63507"
   x2="1239.4963"
   y2="1170.8494">
			<stop
   offset="0"
   style="stop-color:#3172F0"
   id="stop49" />
			<stop
   offset="1"
   style="stop-color:#000065"
   id="stop51" />
		</linearGradient>
		<path
   class="st9"
   d="m 1284.72,1077.16 c -9.88,-12.47 -24.17,-16.11 -33.79,-16.11 -20.01,0 -38.21,14.03 -38.21,40.29 0,26.25 18.71,40.03 37.95,40.03 11.18,0 24.95,-4.94 34.83,-16.89 v 22.35 c -11.7,8.58 -24.17,11.18 -34.31,11.18 -33.53,0 -57.7,-23.91 -57.7,-56.4 0,-33.01 24.43,-57.18 57.7,-57.18 17.15,0 28.33,6.76 33.53,10.4 z"
   id="path54"
   style="fill:#ffffff" />
		<linearGradient
   id="SVGID_7_"
   gradientUnits="userSpaceOnUse"
   x1="1369.9623"
   y1="975.63507"
   x2="1369.9623"
   y2="1170.8494">
			<stop
   offset="0"
   style="stop-color:#3172F0"
   id="stop56" />
			<stop
   offset="1"
   style="stop-color:#000065"
   id="stop58" />
		</linearGradient>
		<path
   class="st10"
   d="m 1343.19,965.4 v 121.64 l 39.51,-40.03 h 24.43 l -46.26,46.26 54.58,61.6 h -24.43 l -43.14,-49.12 -4.68,4.68 v 44.44 h -18.71 V 965.4 Z"
   id="path61"
   style="fill:#ffffff" />
		<linearGradient
   id="SVGID_8_"
   gradientUnits="userSpaceOnUse"
   x1="1487.436"
   y1="975.63507"
   x2="1487.436"
   y2="1170.8494">
			<stop
   offset="0"
   style="stop-color:#3172F0"
   id="stop63" />
			<stop
   offset="1"
   style="stop-color:#000065"
   id="stop65" />
		</linearGradient>
		<path
   class="st11"
   d="m 1463.26,1109.91 c 0,7.54 0,16.37 5.2,23.13 2.86,3.64 8.58,8.32 18.97,8.32 10.4,0 16.11,-4.68 18.97,-8.32 5.2,-6.76 5.2,-15.59 5.2,-23.13 v -62.9 h 18.71 v 64.98 c 0,13.26 -1.3,23.13 -9.88,32.49 -9.62,10.14 -22.35,13.52 -33.01,13.52 -10.66,0 -23.39,-3.38 -33.01,-13.52 -8.58,-9.36 -9.88,-19.23 -9.88,-32.49 v -64.98 h 18.71 v 62.9 z"
   id="path68"
   style="fill:#ffffff" />
		<linearGradient
   id="SVGID_9_"
   gradientUnits="userSpaceOnUse"
   x1="1630.1179"
   y1="975.63507"
   x2="1630.1179"
   y2="1170.8494">
			<stop
   offset="0"
   style="stop-color:#3172F0"
   id="stop70" />
			<stop
   offset="1"
   style="stop-color:#000065"
   id="stop72" />
		</linearGradient>
		<path
   class="st12"
   d="m 1594.77,1214.65 h -18.71 v -167.64 h 18.71 v 15.07 c 12.74,-15.85 29.11,-17.67 36.91,-17.67 33.79,0 52.5,28.07 52.5,57.18 0,29.63 -18.97,56.4 -51.72,56.4 -17.41,0 -29.63,-7.8 -37.69,-18.19 z m 70.17,-113.06 c 0,-26.51 -17.93,-40.55 -35.35,-40.55 -17.41,0 -35.87,14.29 -35.87,40.29 0,22.09 14.04,40.03 36.13,40.03 21.84,-0.01 35.09,-18.2 35.09,-39.77 z"
   id="path75"
   style="fill:#ffffff" />
	</g>
</svg>
